<?xml version="1.0" encoding="UTF-8"?>
<svg width="24px" height="24px" viewBox="0 0 24 24" version="1.1" xmlns="http://www.w3.org/2000/svg" xmlns:xlink="http://www.w3.org/1999/xlink">
    <!-- Generator: Sketch 52.5 (67469) - http://www.bohemiancoding.com/sketch -->
    <title>Icon/Settings</title>
    <desc>Created with Sketch.</desc>
    <defs>
        <path d="M11.6884616,16.2115385 C12.4384654,16.2115385 13.1403814,16.0192327 13.7942308,15.6346154 C14.4480803,15.2499981 14.9673058,14.7355801 15.3519232,14.0913462 C15.7365405,13.4471122 15.9288462,12.7500038 15.9288462,12 C15.9288462,11.2499963 15.7365405,10.5480802 15.3519232,9.89423077 C14.9673058,9.24038135 14.4480803,8.72115577 13.7942308,8.33653846 C13.1403814,7.95192115 12.4384654,7.75961538 11.6884616,7.75961538 C10.9384579,7.75961538 10.2413494,7.95192115 9.59711546,8.33653846 C8.95288147,8.72115577 8.43846354,9.24038135 8.05384623,9.89423077 C7.66922892,10.5480802 7.47692315,11.2499963 7.47692315,12 C7.47692315,12.7500038 7.66922892,13.4471122 8.05384623,14.0913462 C8.43846354,14.7355801 8.95288147,15.2499981 9.59711546,15.6346154 C10.2413494,16.0192327 10.9384579,16.2115385 11.6884616,16.2115385 Z M20.6596155,13.1826923 L23.1692308,15.1442308 C23.284616,15.2403851 23.3519231,15.3653838 23.3711539,15.5192308 C23.3903848,15.6730777 23.3615389,15.817307 23.2846155,15.9519231 L20.8615385,20.1057692 C20.7846151,20.2403853 20.6836545,20.3269229 20.5586539,20.3653846 C20.4336533,20.4038463 20.2942316,20.3942311 20.1403847,20.3365385 L17.1692308,19.1538462 C16.3999962,19.7115412 15.7173107,20.1057681 15.1211539,20.3365385 L14.6884616,23.4807692 C14.6499999,23.6346162 14.5778852,23.7596149 14.4721155,23.8557692 C14.3663457,23.9519236 14.2461546,24 14.1115385,24 L9.26538469,24 C9.13076863,24 9.01057753,23.9519236 8.90480777,23.8557692 C8.79903801,23.7596149 8.73653863,23.6346162 8.71730777,23.4807692 L8.2557693,20.3365385 C7.44807296,20.0096137 6.77500277,19.6153869 6.23653854,19.1538462 L3.23653854,20.3365385 C2.92884469,20.4711545 2.68846248,20.3942322 2.51538469,20.1057692 L0.0923077662,15.9519231 C0.0153843046,15.817307 -0.0134615608,15.6730777 0.00576930462,15.5192308 C0.02500017,15.3653838 0.0923071892,15.2403851 0.207692382,15.1442308 L2.74615392,13.1826923 C2.70769219,12.9134602 2.68846161,12.5192334 2.68846161,12 C2.68846161,11.4807666 2.70769219,11.0865398 2.74615392,10.8173077 L0.207692382,8.85576923 C0.0923071892,8.7596149 0.02500017,8.63461615 0.00576930462,8.48076923 C-0.0134615608,8.32692231 0.0153843046,8.18269298 0.0923077662,8.04807692 L2.51538469,3.89423077 C2.68846248,3.60576779 2.92884469,3.52884548 3.23653854,3.66346154 L6.23653854,4.84615385 C6.92884969,4.32692048 7.60191988,3.93269365 8.2557693,3.66346154 L8.71730777,0.519230769 C8.73653863,0.365383846 8.79903801,0.240385096 8.90480777,0.144230769 C9.01057753,0.0480764423 9.13076863,0 9.26538469,0 L14.1115385,0 C14.2461546,0 14.3663457,0.0480764423 14.4721155,0.144230769 C14.5778852,0.240385096 14.6499999,0.365383846 14.6884616,0.519230769 L15.1211539,3.66346154 C15.8711577,3.95192452 16.5538432,4.34615135 17.1692308,4.84615385 L20.1403847,3.66346154 C20.2942316,3.60576894 20.4336533,3.59615365 20.5586539,3.63461538 C20.6836545,3.67307712 20.7846151,3.75961471 20.8615385,3.89423077 L23.2846155,8.04807692 C23.3615389,8.18269298 23.3903848,8.32692231 23.3711539,8.48076923 C23.3519231,8.63461615 23.284616,8.7596149 23.1692308,8.85576923 L20.6596155,10.8173077 C20.6980772,11.0865398 20.7173078,11.4807666 20.7173078,12 C20.7173078,12.5192334 20.6980772,12.9134602 20.6596155,13.1826923 Z" id="path-1"></path>
    </defs>
    <g id="Icon/Settings" stroke="none" stroke-width="1" fill="none" fill-rule="evenodd">
        <mask id="mask-2" fill="white">
            <use xlink:href="#path-1"></use>
        </mask>
        <use id="settings---material" fill="#011E38" xlink:href="#path-1"></use>
        <rect id="Colour" fill="#00438F" mask="url(#mask-2)" x="0" y="0" width="24" height="24"></rect>
    </g>
</svg>