<?xml version="1.0" encoding="UTF-8"?>
<svg width="24px" height="24px" viewBox="0 0 24 24" version="1.1" xmlns="http://www.w3.org/2000/svg" xmlns:xlink="http://www.w3.org/1999/xlink">
    <!-- Generator: Sketch 52.5 (67469) - http://www.bohemiancoding.com/sketch -->
    <title>Icon/More</title>
    <desc>Created with Sketch.</desc>
    <defs>
        <path d="M12.0179641,17.9640719 C12.8323394,17.9640719 13.5389192,18.2634701 14.1377246,18.8622754 C14.7365299,19.4610808 15.0359281,20.1676606 15.0359281,20.9820359 C15.0359281,21.7964113 14.7365299,22.502991 14.1377246,23.1017964 C13.5389192,23.7006018 12.8323394,24 12.0179641,24 C11.2035887,24 10.497009,23.7006018 9.89820359,23.1017964 C9.2993982,22.502991 9,21.7964113 9,20.9820359 C9,20.1676606 9.2993982,19.4610808 9.89820359,18.8622754 C10.497009,18.2634701 11.2035887,17.9640719 12.0179641,17.9640719 Z M12.0179641,8.98203593 C12.8323394,8.98203593 13.5389192,9.28143413 14.1377246,9.88023952 C14.7365299,10.4790449 15.0359281,11.1856247 15.0359281,12 C15.0359281,12.8143753 14.7365299,13.5209551 14.1377246,14.1197605 C13.5389192,14.7185659 12.8323394,15.0179641 12.0179641,15.0179641 C11.2035887,15.0179641 10.497009,14.7185659 9.89820359,14.1197605 C9.2993982,13.5209551 9,12.8143753 9,12 C9,11.1856247 9.2993982,10.4790449 9.89820359,9.88023952 C10.497009,9.28143413 11.2035887,8.98203593 12.0179641,8.98203593 Z M12.0179641,6.03592814 C11.2035887,6.03592814 10.497009,5.73652994 9.89820359,5.13772455 C9.2993982,4.53891916 9,3.8323394 9,3.01796407 C9,2.20358874 9.2993982,1.49700898 9.89820359,0.898203593 C10.497009,0.299398204 11.2035887,-3.98882524e-15 12.0179641,0 C12.8323394,-3.98882524e-15 13.5389192,0.299398204 14.1377246,0.898203593 C14.7365299,1.49700898 15.0359281,2.20358874 15.0359281,3.01796407 C15.0359281,3.8323394 14.7365299,4.53891916 14.1377246,5.13772455 C13.5389192,5.73652994 12.8323394,6.03592814 12.0179641,6.03592814 Z" id="path-1"></path>
    </defs>
    <g id="Icon/More" stroke="none" stroke-width="1" fill="none" fill-rule="evenodd">
        <mask id="mask-2" fill="white">
            <use xlink:href="#path-1"></use>
        </mask>
        <use id="more_vert---material" fill="#011E38" xlink:href="#path-1"></use>
        <rect id="Colour" fill="#00438F" mask="url(#mask-2)" x="0" y="0" width="24" height="24"></rect>
    </g>
</svg>