<?xml version="1.0" encoding="UTF-8"?>
<svg width="24px" height="24px" viewBox="0 0 24 24" version="1.1" xmlns="http://www.w3.org/2000/svg" xmlns:xlink="http://www.w3.org/1999/xlink">
    <!-- Generator: Sketch 52.5 (67469) - http://www.bohemiancoding.com/sketch -->
    <title>Icon/Search</title>
    <desc>Created with Sketch.</desc>
    <defs>
        <path d="M8.95473251,15.1111111 C10.0740797,15.1111111 11.1056194,14.8312785 12.0493827,14.2716049 C12.993146,13.7119314 13.7393663,12.9602242 14.2880658,12.0164609 C14.8367654,11.0726976 15.1111111,10.0411579 15.1111111,8.9218107 C15.1111111,7.80246354 14.8367654,6.77092379 14.2880658,5.82716049 C13.7393663,4.8833972 12.993146,4.13717695 12.0493827,3.58847737 C11.1056194,3.03977778 10.0740797,2.7654321 8.95473251,2.7654321 C7.83538535,2.7654321 6.8038456,3.03977778 5.8600823,3.58847737 C4.91631901,4.13717695 4.16461185,4.8833972 3.60493827,5.82716049 C3.04526469,6.77092379 2.7654321,7.80246354 2.7654321,8.9218107 C2.7654321,10.0411579 3.04526469,11.0726976 3.60493827,12.0164609 C4.16461185,12.9602242 4.91631901,13.7119314 5.8600823,14.2716049 C6.8038456,14.8312785 7.83538535,15.1111111 8.95473251,15.1111111 Z M17.1851852,15.1111111 L24,21.9259259 L21.9259259,24 L15.1111111,17.1522634 L15.1111111,16.0658436 L14.7160494,15.7037037 C13.94787,16.3840912 13.0644769,16.905348 12.0658436,17.2674897 C11.0672104,17.6296314 10.0301837,17.8106996 8.95473251,17.8106996 C7.33058173,17.8106996 5.83265432,17.4156418 4.46090535,16.6255144 C3.08915638,15.835387 2.0082344,14.7709258 1.218107,13.4320988 C0.406031605,12.0493758 0,10.5459615 0,8.9218107 C0,7.29765992 0.400544691,5.79973251 1.20164609,4.42798354 C2.00274749,3.05623457 3.08915638,1.97531259 4.46090535,1.18518519 C5.83265432,0.395057778 7.33058173,3.65505523e-15 8.95473251,0 C10.5788833,3.65505523e-15 12.0822976,0.406031605 13.4650206,1.218107 C14.8038476,2.0082344 15.8628219,3.08366947 16.6419753,4.44444444 C17.4211287,5.80521942 17.8106996,7.29765992 17.8106996,8.9218107 C17.8106996,10.0192099 17.6296314,11.0672104 17.2674897,12.0658436 C16.905348,13.0644769 16.3840912,13.94787 15.7037037,14.7160494 L16.0658436,15.1111111 L17.1851852,15.1111111 Z" id="path-1"></path>
    </defs>
    <g id="Icon/Search" stroke="none" stroke-width="1" fill="none" fill-rule="evenodd">
        <mask id="mask-2" fill="white">
            <use xlink:href="#path-1"></use>
        </mask>
        <use id="search---material" fill="#011E38" xlink:href="#path-1"></use>
        <rect id="Colour" fill="#00438F" mask="url(#mask-2)" x="0" y="0" width="24" height="24"></rect>
    </g>
</svg>